<?xml version="1.0" standalone="no"?>
<!DOCTYPE svg PUBLIC "-//W3C//DTD SVG 20010904//EN"
 "http://www.w3.org/TR/2001/REC-SVG-20010904/DTD/svg10.dtd">
<svg version="1.0" xmlns="http://www.w3.org/2000/svg"
 width="512.000000pt" height="512.000000pt" viewBox="0 0 512.000000 512.000000"
 preserveAspectRatio="xMidYMid meet">

<g transform="translate(0.000000,512.000000) scale(0.100000,-0.100000)"
fill="#000000" stroke="none">
<path d="M1824 5110 c-12 -4 -31 -21 -43 -36 -21 -27 -22 -35 -19 -241 l3
-213 27 -26 c37 -37 99 -37 136 0 l27 26 0 221 0 221 -33 29 c-33 29 -60 35
-98 19z"/>
<path d="M3835 5101 c-16 -10 -107 -97 -201 -192 -184 -186 -199 -211 -171
-266 14 -28 13 -29 -99 -143 -121 -124 -135 -150 -114 -208 13 -35 12 -36 -38
-84 -77 -73 -92 -70 -237 54 -128 108 -273 161 -445 162 -148 1 -271 -34 -390
-112 -77 -50 -457 -429 -466 -464 -12 -52 6 -80 139 -216 158 -161 197 -192
245 -192 32 0 51 16 221 184 102 102 199 190 214 195 43 17 73 4 148 -63 125
-113 268 -178 420 -192 l71 -7 -281 -281 c-154 -155 -284 -292 -290 -307 -20
-55 -5 -78 163 -246 l162 -163 49 0 49 0 286 286 287 285 7 -70 c13 -147 77
-289 182 -409 65 -73 88 -116 79 -150 -4 -15 -86 -107 -196 -217 -247 -251
-245 -212 -19 -439 230 -232 186 -237 474 54 186 189 228 236 258 295 146 283
104 579 -116 824 -87 97 -88 138 -3 219 34 33 35 34 61 17 49 -32 80 -15 206
110 l115 115 42 -16 c37 -15 43 -15 75 0 19 9 114 97 211 194 141 143 176 184
182 212 3 19 5 295 3 613 l-3 579 -33 29 -32 29 -593 0 c-562 0 -594 -1 -622
-19z m210 -1061 l420 -420 -68 -67 -67 -68 -422 422 -423 423 65 65 c35 36 67
65 70 65 3 0 194 -189 425 -420z m-1354 152 c57 -20 120 -60 239 -152 88 -68
133 -84 218 -78 82 6 151 40 220 106 l45 44 63 -63 c35 -35 64 -68 64 -73 0
-23 -119 -121 -184 -152 -89 -43 -162 -57 -261 -52 -133 8 -208 44 -358 170
-41 34 -89 64 -119 74 -70 23 -159 16 -229 -19 l-54 -27 -65 66 c-75 75 -76
72 36 126 126 59 269 71 385 30z m-571 -437 l-70 -70 -67 68 -68 67 70 70 69
70 68 -67 68 -68 -70 -70z m1943 -397 c-69 -71 -103 -144 -103 -225 0 -92 28
-154 111 -248 111 -126 149 -215 149 -356 0 -66 -6 -104 -24 -159 -23 -66 -66
-143 -89 -157 -5 -3 -39 24 -75 60 l-66 66 30 53 c25 46 29 63 29 133 0 102
-20 146 -108 242 -107 117 -150 220 -149 363 1 145 49 258 155 368 l52 52 70
-70 70 -70 -52 -52z m-1053 -353 l64 -65 -69 -70 -70 -70 -70 70 -70 70 65 65
c35 36 69 65 75 65 6 0 40 -29 75 -65z m883 -883 l67 -68 -70 -69 -70 -69 -70
69 -70 69 67 68 c37 38 70 68 73 68 3 0 36 -30 73 -68z"/>
<path d="M898 4841 c-56 -50 -49 -78 71 -279 87 -147 109 -176 137 -188 44
-18 78 -10 109 28 41 49 34 79 -51 224 -42 71 -89 150 -105 175 -47 74 -106
89 -161 40z"/>
<path d="M266 4199 c-38 -33 -46 -94 -17 -131 12 -15 97 -70 189 -123 187
-106 223 -115 267 -71 36 36 42 73 19 114 -15 28 -52 54 -184 130 -187 107
-229 119 -274 81z"/>
<path d="M1068 3263 c-206 -204 -261 -270 -307 -367 -48 -101 -64 -178 -65
-301 0 -183 55 -322 190 -480 94 -110 97 -132 26 -207 -43 -45 -51 -49 -70
-39 -11 6 -37 11 -57 11 -33 0 -48 -11 -156 -117 -113 -111 -120 -116 -144
-105 -66 30 -75 25 -272 -170 -102 -101 -191 -195 -199 -210 -12 -22 -14 -127
-14 -607 0 -344 4 -590 10 -605 5 -14 21 -33 37 -43 25 -17 67 -18 583 -21
305 -2 575 0 600 3 42 6 57 18 237 198 205 204 217 221 189 279 l-17 32 116
116 c95 95 117 123 122 153 4 25 1 44 -10 61 -16 24 -15 26 34 70 44 39 57 46
94 46 37 0 50 -7 103 -54 173 -154 322 -212 527 -204 132 6 233 36 340 103
101 63 485 450 485 489 0 46 -23 76 -182 234 -153 151 -164 158 -223 152 -11
-1 -99 -79 -195 -174 -96 -95 -186 -181 -200 -190 -13 -9 -41 -16 -62 -16 -32
0 -47 9 -100 59 -129 120 -274 188 -426 199 l-74 5 285 286 c191 192 286 294
289 311 8 55 -11 84 -164 237 -84 84 -164 157 -180 164 -15 6 -40 8 -55 4 -18
-4 -127 -105 -315 -293 l-288 -287 0 45 c-1 135 -76 316 -181 435 -68 78 -93
125 -83 158 3 12 91 108 195 213 250 253 249 218 21 446 -228 228 -193 229
-444 -19z m302 -128 l65 -65 -68 -68 -67 -67 -67 67 -68 68 65 65 c35 36 67
65 70 65 3 0 35 -29 70 -65z m-281 -279 l63 -64 -28 -59 c-25 -49 -29 -70 -29
-138 0 -98 11 -123 107 -236 153 -181 191 -358 117 -554 -23 -62 -95 -162
-142 -200 l-32 -24 -67 66 -67 67 45 45 c102 103 134 242 81 348 -14 27 -56
87 -93 134 -80 100 -119 181 -135 279 -20 120 12 261 84 367 12 18 24 33 27
33 3 0 34 -29 69 -64z m1171 -601 l64 -65 -69 -70 -70 -70 -70 70 -70 70 65
65 c35 36 69 65 75 65 6 0 40 -29 75 -65z m-630 -1460 c0 -6 -29 -40 -65 -75
l-65 -65 -422 423 -423 422 70 70 70 70 417 -417 c230 -230 418 -423 418 -428z
m1507 438 l-67 -68 -70 70 -70 69 67 68 68 68 70 -70 70 -70 -68 -67z m-1062
112 c95 -20 198 -72 286 -146 97 -82 144 -102 237 -102 61 0 81 4 131 30 l59
31 67 -68 66 -67 -33 -25 c-49 -37 -107 -65 -175 -82 -160 -42 -318 0 -462
122 -102 87 -158 114 -249 120 -97 6 -149 -14 -228 -89 l-60 -58 -69 69 -69
70 49 50 c82 84 169 131 275 150 68 12 99 11 175 -5z"/>
<path d="M75 3343 c-54 -13 -89 -87 -65 -134 29 -57 37 -59 271 -59 l216 0 26
25 c34 34 40 67 23 110 -24 58 -56 65 -268 64 -101 -1 -192 -3 -203 -6z"/>
<path d="M4597 1945 c-34 -34 -40 -67 -23 -110 25 -60 57 -67 287 -63 193 3
198 4 223 27 47 44 44 112 -8 153 -18 15 -47 18 -237 18 l-216 0 -26 -25z"/>
<path d="M4415 1246 c-36 -36 -42 -73 -19 -115 15 -29 50 -53 189 -133 188
-107 222 -117 270 -75 37 31 44 93 16 129 -12 15 -97 70 -189 123 -187 106
-223 115 -267 71z"/>
<path d="M3944 750 c-32 -13 -64 -59 -64 -94 0 -43 188 -364 227 -388 41 -26
78 -22 115 11 56 50 49 78 -70 278 -56 95 -110 177 -120 181 -30 16 -66 21
-88 12z"/>
<path d="M3234 553 c-12 -2 -32 -15 -45 -29 -23 -25 -24 -30 -27 -239 l-3
-213 28 -32 c18 -19 41 -33 64 -36 31 -5 42 -1 70 24 l34 30 0 221 0 221 -25
24 c-26 25 -61 35 -96 29z"/>
</g>
</svg>
