<?xml version="1.0" standalone="no"?>
<!DOCTYPE svg PUBLIC "-//W3C//DTD SVG 20010904//EN"
 "http://www.w3.org/TR/2001/REC-SVG-20010904/DTD/svg10.dtd">
<svg version="1.0" xmlns="http://www.w3.org/2000/svg"
 width="512.000000pt" height="512.000000pt" viewBox="0 0 512.000000 512.000000"
 preserveAspectRatio="xMidYMid meet">

<g transform="translate(0.000000,512.000000) scale(0.100000,-0.100000)"
fill="#000000" stroke="none">
<path d="M1824 5110 c-12 -4 -31 -21 -43 -36 -21 -27 -22 -35 -19 -241 l3
-213 27 -26 c37 -37 99 -37 136 0 l27 26 0 221 0 221 -33 29 c-33 29 -60 35
-98 19z"/>
<path d="M3835 5101 c-16 -10 -107 -97 -201 -192 -184 -186 -199 -211 -171
-266 14 -28 13 -29 -99 -143 -121 -124 -135 -150 -114 -208 13 -35 12 -36 -38
-84 -77 -73 -92 -70 -237 54 -128 108 -273 161 -445 162 -148 1 -271 -34 -390
-112 -77 -50 -457 -429 -466 -464 -12 -52 6 -80 139 -216 158 -161 197 -192
245 -192 32 0 51 16 221 184 102 102 199 190 214 195 43 17 73 4 148 -63 125
-113 268 -178 420 -192 l71 -7 -281 -281 c-154 -155 -284 -292 -290 -307 -20
-55 -5 -78 163 -246 l162 -163 49 0 49 0 286 286 287 285 7 -70 c13 -147 77
-289 182 -409 65 -73 88 -116 79 -150 -4 -15 -86 -107 -196 -217 -247 -251
-245 -212 -19 -439 230 -232 186 -237 474 54 186 189 228 236 258 295 146 283
104 579 -116 824 -87 97 -88 138 -3 219 34 33 35 34 61 17 49 -32 80 -15 206
110 l115 115 42 -16 c37 -15 43 -15 75 0 19 9 114 97 211 194 141 143 176 184
182 212 3 19 5 295 3 613 l-3 579 -33 29 -32 29 -593 0 c-562 0 -594 -1 -622
-19z m1085 -674 l0 -492 -120 -120 -120 -120 -492 493 -493 492 120 120 120
120 492 0 493 0 0 -493z m-519 -871 l-70 -70 -426 419 -426 418 73 74 73 73
422 -422 423 -423 -69 -69z m-1752 653 c72 -16 141 -54 241 -134 111 -88 181
-119 255 -113 68 6 154 47 215 104 l51 48 70 -70 70 -70 -57 -57 c-111 -112
-277 -169 -429 -148 -121 17 -187 50 -309 153 -98 82 -144 102 -232 102 -61 0
-81 -4 -132 -31 l-60 -31 -68 70 c-79 79 -80 74 31 128 113 56 247 74 354 49z
m-524 -459 l-70 -70 -70 70 -70 70 70 70 70 70 70 -70 70 -70 -70 -70z m1640
9 l70 -70 -310 -304 -310 -304 -70 70 -70 69 305 305 c168 168 307 305 310
305 3 0 37 -32 75 -71z m295 -406 c-64 -70 -91 -127 -97 -207 -7 -88 22 -158
103 -249 115 -129 157 -227 157 -367 0 -115 -38 -230 -102 -310 l-20 -25 -73
72 c-67 68 -71 73 -56 90 54 60 69 199 30 286 -11 26 -49 79 -84 117 -73 82
-112 145 -132 215 -54 185 -8 372 127 513 l61 63 70 -70 69 -70 -53 -58z
m-1055 -483 l-70 -70 -70 70 -70 70 70 70 70 70 70 -70 70 -70 -70 -70z m888
-748 l67 -68 -70 -69 -70 -69 -70 69 -70 69 67 68 c37 38 70 68 73 68 3 0 36
-30 73 -68z"/>
<path d="M898 4841 c-56 -50 -49 -78 71 -279 87 -147 109 -176 137 -188 44
-18 78 -10 109 28 41 49 34 79 -51 224 -42 71 -89 150 -105 175 -47 74 -106
89 -161 40z"/>
<path d="M266 4199 c-38 -33 -46 -94 -17 -131 12 -15 97 -70 189 -123 187
-106 223 -115 267 -71 36 36 42 73 19 114 -15 28 -52 54 -184 130 -187 107
-229 119 -274 81z"/>
<path d="M1068 3263 c-206 -204 -261 -270 -307 -367 -48 -101 -64 -178 -65
-301 0 -183 55 -322 190 -480 94 -110 97 -132 26 -207 -43 -45 -51 -49 -70
-39 -11 6 -37 11 -57 11 -33 0 -48 -11 -156 -117 -113 -111 -120 -116 -144
-105 -66 30 -75 25 -272 -170 -102 -101 -191 -195 -199 -210 -12 -22 -14 -127
-14 -607 0 -344 4 -590 10 -605 5 -14 21 -33 37 -43 25 -17 67 -18 583 -21
305 -2 575 0 600 3 42 6 57 18 237 198 205 204 217 221 189 279 l-17 32 116
116 c95 95 117 123 122 153 4 25 1 44 -10 61 -16 24 -15 26 34 70 44 39 57 46
94 46 37 0 50 -7 103 -54 173 -154 322 -212 527 -204 132 6 233 36 340 103
101 63 485 450 485 489 0 46 -23 76 -182 234 -153 151 -164 158 -223 152 -11
-1 -99 -79 -195 -174 -96 -95 -186 -181 -200 -190 -13 -9 -41 -16 -62 -16 -32
0 -47 9 -100 59 -129 120 -274 188 -426 199 l-74 5 285 286 c191 192 286 294
289 311 8 55 -11 84 -164 237 -84 84 -164 157 -180 164 -15 6 -40 8 -55 4 -18
-4 -127 -105 -315 -293 l-288 -287 0 45 c-1 135 -76 316 -181 435 -68 78 -93
125 -83 158 3 12 91 108 195 213 250 253 249 218 21 446 -228 228 -193 229
-444 -19z m307 -123 l70 -70 -73 -73 -72 -72 -72 72 -73 73 70 70 c38 38 72
70 75 70 3 0 37 -32 75 -70z m-285 -285 l66 -66 -30 -61 c-25 -51 -30 -73 -30
-132 0 -89 21 -134 110 -236 161 -185 197 -387 102 -588 -29 -62 -139 -192
-162 -192 -6 0 -40 29 -76 65 l-64 64 46 49 c74 79 102 143 103 232 0 91 -13
120 -107 239 -80 101 -122 180 -139 259 -16 78 -6 213 20 282 22 60 76 150 88
150 4 0 37 -29 73 -65z m1163 -737 l-73 -73 -65 65 c-36 35 -65 69 -65 74 0 6
30 41 67 78 l68 68 70 -70 70 -70 -72 -72z m-280 -146 l67 -67 -308 -308 -307
-307 -70 70 -70 70 305 305 c168 168 307 305 310 305 3 0 36 -30 73 -68z
m-755 -755 l422 -422 -70 -70 -70 -70 -425 425 -425 425 67 67 c37 38 70 68
73 68 3 0 195 -190 428 -423z m1925 155 l67 -68 -70 -69 -70 -69 -70 69 -70
69 67 68 c37 38 70 68 73 68 3 0 36 -30 73 -68z m-1838 -1052 l-120 -120 -492
0 -493 0 0 497 0 498 117 117 118 118 495 -495 495 -495 -120 -120z m784 1025
c94 -22 180 -67 263 -137 40 -33 97 -72 127 -86 73 -34 184 -29 256 12 l49 27
70 -70 70 -70 -25 -20 c-101 -86 -290 -123 -432 -86 -81 21 -125 45 -217 121
-104 84 -166 115 -245 122 -91 7 -148 -15 -230 -90 l-66 -61 -70 69 -69 68 62
63 c129 130 287 178 457 138z"/>
<path d="M75 3343 c-54 -13 -89 -87 -65 -134 29 -57 37 -59 271 -59 l216 0 26
25 c34 34 40 67 23 110 -24 58 -56 65 -268 64 -101 -1 -192 -3 -203 -6z"/>
<path d="M4597 1945 c-34 -34 -40 -67 -23 -110 25 -60 57 -67 287 -63 193 3
198 4 223 27 47 44 44 112 -8 153 -18 15 -47 18 -237 18 l-216 0 -26 -25z"/>
<path d="M4415 1246 c-36 -36 -42 -73 -19 -115 15 -29 50 -53 189 -133 188
-107 222 -117 270 -75 37 31 44 93 16 129 -12 15 -97 70 -189 123 -187 106
-223 115 -267 71z"/>
<path d="M3944 750 c-32 -13 -64 -59 -64 -94 0 -43 188 -364 227 -388 41 -26
78 -22 115 11 56 50 49 78 -70 278 -56 95 -110 177 -120 181 -30 16 -66 21
-88 12z"/>
<path d="M3234 553 c-12 -2 -32 -15 -45 -29 -23 -25 -24 -30 -27 -239 l-3
-213 28 -32 c18 -19 41 -33 64 -36 31 -5 42 -1 70 24 l34 30 0 221 0 221 -25
24 c-26 25 -61 35 -96 29z"/>
</g>
</svg>
