<?xml version="1.0" standalone="no"?>
<!DOCTYPE svg PUBLIC "-//W3C//DTD SVG 20010904//EN"
 "http://www.w3.org/TR/2001/REC-SVG-20010904/DTD/svg10.dtd">
<svg version="1.0" xmlns="http://www.w3.org/2000/svg"
 width="512.000000pt" height="512.000000pt" viewBox="0 0 512.000000 512.000000"
 preserveAspectRatio="xMidYMid meet">

<g transform="translate(0.000000,512.000000) scale(0.100000,-0.100000)"
fill="#000000" stroke="none">
<path d="M2380 5114 c-19 -2 -78 -9 -130 -14 -330 -36 -695 -160 -990 -336
-375 -224 -680 -529 -904 -904 -175 -292 -291 -632 -338 -990 -16 -123 -16
-497 0 -620 82 -623 356 -1150 820 -1581 256 -239 575 -425 922 -539 274 -91
491 -124 800 -124 228 0 329 9 530 50 689 141 1304 583 1674 1204 175 292 291
632 338 990 16 123 16 497 0 620 -47 358 -163 698 -338 990 -224 375 -529 680
-904 904 -289 173 -634 291 -980 336 -88 12 -438 21 -500 14z m535 -323 c239
-40 416 -96 630 -201 287 -139 541 -336 737 -570 521 -621 674 -1452 408
-2215 -79 -226 -240 -505 -408 -705 -371 -443 -934 -736 -1517 -790 -598 -55
-1196 135 -1665 528 -443 371 -736 934 -790 1517 -55 598 135 1196 528 1665
296 354 732 624 1183 733 99 25 263 52 359 61 108 10 418 -4 535 -23z"/>
<path d="M1682 4084 c-93 -25 -142 -62 -332 -253 -171 -171 -189 -193 -227
-271 -56 -113 -73 -183 -80 -319 -43 -833 953 -1970 1907 -2177 117 -26 367
-26 460 -1 90 24 180 68 248 120 104 81 364 356 395 419 41 81 54 170 39 260
-21 123 -55 172 -262 379 -154 155 -196 191 -250 218 -93 45 -180 57 -277 37
-100 -20 -161 -58 -275 -173 l-93 -93 -352 352 -352 352 102 106 c114 118 151
179 166 280 14 86 0 176 -41 260 -26 54 -62 96 -217 251 -145 146 -199 193
-246 216 -104 53 -210 65 -313 37z m155 -294 c15 -6 101 -84 191 -173 234
-234 234 -231 17 -447 -81 -80 -153 -157 -161 -172 -18 -35 -18 -92 1 -132 8
-17 230 -246 493 -508 418 -418 482 -477 515 -483 82 -15 99 -5 272 164 166
163 185 176 250 164 41 -8 360 -322 376 -370 22 -69 11 -87 -169 -265 -92 -91
-181 -173 -197 -181 -224 -113 -626 -18 -1020 241 -620 407 -1087 1110 -1062
1597 8 166 22 192 206 379 197 200 216 212 288 186z"/>
</g>
</svg>
